<svg version="1.1" id="Layer_1" xmlns="http://www.w3.org/2000/svg" xmlns:xlink="http://www.w3.org/1999/xlink" x="0px" y="0px"
	 width="100%" viewBox="0 0 34 34" enable-background="new 0 0 494 139" xml:space="preserve">
<path fill="#FEFEFE" opacity="1.000000" stroke="none" 
	d="
M330.000000,1.000000 
	C385.000000,1.000000 440.000000,1.000000 495.000000,1.000000 
	C495.000000,47.333328 495.000000,93.666656 495.000000,140.000000 
	C331.833344,140.000000 168.666702,140.002686 5.500058,139.958618 
	C3.999951,139.958221 2.500014,139.333344 1.468656,138.500641 
	C59.584377,137.982544 117.231445,137.963821 175.354691,137.960571 
	C225.279968,137.982819 274.729370,137.914932 324.177704,138.110382 
	C329.190918,138.130188 330.114624,136.477859 330.096893,131.864960 
	C329.929199,88.243820 329.998779,44.621780 330.000000,1.000000 
M381.215912,62.518860 
	C381.472015,58.771805 381.728119,55.024746 381.983002,51.295490 
	C373.858582,50.652153 373.859161,50.652512 370.127289,56.802876 
	C368.569000,59.371029 367.007477,61.937222 365.447418,64.504295 
	C365.098602,64.336105 364.749817,64.167915 364.401001,63.999718 
	C364.937683,59.805492 365.474365,55.611263 366.026825,51.293842 
	C363.129974,51.293842 360.586090,51.293842 357.845825,51.293842 
	C356.703613,60.914776 355.594666,70.255501 354.496307,79.506920 
	C360.331360,81.161728 364.070404,79.812500 366.500000,74.415260 
	C368.229431,70.573341 370.932953,67.169891 373.201752,63.570759 
	C373.464111,63.640530 373.726440,63.710297 373.988800,63.780067 
	C373.730194,69.095566 373.471619,74.411064 373.167114,80.669609 
	C376.762268,79.899483 381.197021,80.250267 382.320618,78.488846 
	C387.875702,69.780472 392.555176,60.513580 397.667816,51.217388 
	C389.696075,50.772411 389.705475,50.777306 386.501801,56.926064 
	C385.198669,59.427109 383.844727,61.901699 382.513885,64.388313 
	C382.050964,64.039810 381.588074,63.691303 381.215912,62.518860 
M452.829987,68.005844 
	C456.136169,68.005844 459.442352,68.005844 462.746948,68.005844 
	C463.567596,65.580223 464.280121,63.474155 465.189728,60.785576 
	C460.232330,60.785576 456.013428,60.785576 451.794525,60.785576 
	C456.239655,55.958694 462.135284,59.419785 467.349487,57.397392 
	C467.945679,55.502567 468.603394,53.412331 469.364258,50.994236 
	C462.138092,50.994236 455.485504,50.879715 448.843536,51.094536 
	C447.573273,51.135624 445.599854,52.202648 445.214813,53.257637 
	C442.033539,61.975056 439.150116,70.801178 436.089142,79.852707 
	C444.279480,79.852707 452.065308,79.852707 460.136841,79.852707 
	C460.856537,77.691963 461.569855,75.550507 462.450806,72.905731 
	C457.085968,72.905731 452.328491,72.905731 447.570984,72.905731 
	C447.314148,72.391830 447.057312,71.877937 446.800446,71.364037 
	C448.511658,70.244667 450.222839,69.125290 452.829987,68.005844 
M409.004547,76.415680 
	C415.931305,83.338867 431.336090,79.943985 434.590668,70.777046 
	C436.119965,66.469673 434.671875,63.746296 429.831238,62.064468 
	C427.180695,61.143566 424.474487,60.382935 421.127686,59.343239 
	C424.183624,56.148716 426.849670,54.723709 428.772003,58.097340 
	C430.897064,61.826672 433.652771,59.047165 436.024078,59.536686 
	C436.453674,59.625366 437.944519,57.635319 437.735596,57.232769 
	C436.752197,55.337769 435.701508,52.689091 434.029785,52.080227 
	C427.723846,49.783466 421.506409,50.538208 416.322937,55.151169 
	C411.152710,59.752254 412.321716,64.828438 418.858032,67.180923 
	C421.262451,68.046280 423.647095,68.966599 426.040741,69.861839 
	C426.133087,70.407860 426.225464,70.953873 426.317810,71.499893 
	C424.485474,72.416367 422.599823,74.137108 420.836029,74.020111 
	C419.117950,73.906136 417.524597,71.911621 415.007874,70.126740 
	C407.969727,70.211937 407.969727,70.211937 409.004547,76.415680 
M401.395203,77.131676 
	C404.276825,68.550278 407.158478,59.968880 410.113159,51.169960 
	C406.961090,51.169960 404.174835,51.169960 401.363342,51.169960 
	C398.116974,60.715946 394.924408,70.103851 391.135559,81.245087 
	C395.248444,79.856506 398.171722,78.869576 401.395203,77.131676 
z"/>
<path fill="#36344F" opacity="1.000000" stroke="none" 
	d="
M174.878510,137.945099 
	C117.231445,137.963821 59.584377,137.982544 1.468657,138.000641 
	C1.000000,92.397644 1.000000,46.795284 1.000000,1.000000 
	C58.687416,1.000000 116.375053,1.000000 174.530182,1.468656 
	C174.957962,47.273247 174.918243,92.609177 174.878510,137.945099 
M141.496094,36.717079 
	C141.752930,36.220352 142.009781,35.723621 142.299637,35.241791 
	C142.299637,35.241791 142.330597,35.260571 142.895966,35.097897 
	C142.608902,34.050880 142.321854,33.003868 141.997620,31.996222 
	C141.997620,31.996222 142.046295,31.973398 141.845398,31.509323 
	C141.566925,31.332123 141.288437,31.154922 140.763000,30.521427 
	C140.312988,30.288532 139.862961,30.055637 139.098007,29.325729 
	C138.781281,29.100515 138.464569,28.875299 137.947739,28.286072 
	C137.756393,28.068020 137.517258,27.937609 136.951782,27.440720 
	C136.641800,27.282343 136.331818,27.123966 135.627625,26.428484 
	C102.073372,0.505068 54.171200,8.854513 32.767925,33.748039 
	C34.507401,35.906143 36.224552,38.036552 37.971306,40.203686 
	C40.111115,38.467236 41.659237,37.218567 43.199284,35.960022 
	C60.216507,22.053364 79.659683,17.289154 101.182381,20.861759 
	C112.905792,22.807756 123.106880,28.341469 132.976044,35.627480 
	C133.283463,35.829067 133.590897,36.030655 134.170914,36.711388 
	C134.742615,37.164234 135.314316,37.617085 136.167953,38.618542 
	C137.196121,38.515644 138.224304,38.412746 139.246170,38.277401 
	C139.246170,38.277401 139.216644,38.262520 139.791687,38.182831 
	C140.179260,37.778519 140.566849,37.374203 140.999847,36.999969 
	C140.999847,36.999969 140.969879,36.954514 141.496094,36.717079 
M65.380478,120.041977 
	C64.977554,120.379837 64.574623,120.717705 63.523411,121.393684 
	C60.862083,126.730804 62.522491,129.874512 68.315636,129.924713 
	C81.647339,130.040237 94.982498,130.078781 108.311111,129.849197 
	C110.127541,129.817917 112.919952,128.444946 113.448555,127.020714 
	C114.046303,125.410202 112.599174,123.040733 111.725952,120.507782 
	C111.194984,120.269112 110.664017,120.030449 110.070198,119.380554 
	C110.070198,119.380554 110.015945,118.968109 109.477394,118.415367 
	C107.649117,118.264702 105.820847,118.114029 103.997879,117.310158 
	C103.998177,116.874352 103.998482,116.438553 104.497459,115.604362 
	C104.274017,114.591125 104.050575,113.577896 103.642715,111.906174 
	C100.618965,103.457314 97.817627,94.917244 94.416260,86.623238 
	C93.557823,84.529984 90.999512,82.405266 88.815224,81.823418 
	C87.177490,81.387161 83.666489,82.922295 83.086006,84.402115 
	C79.407768,93.778969 76.313522,103.384903 73.009850,113.686058 
	C73.006668,114.456863 73.003487,115.227669 72.252098,116.000923 
	C71.172234,116.652634 70.092361,117.304352 68.326813,117.986298 
	C67.551010,118.342529 66.775208,118.698769 65.972992,119.469910 
	C65.972992,119.469910 65.909065,119.881790 65.380478,120.041977 
M129.081589,81.092194 
	C129.243927,81.259422 129.406250,81.426643 129.202774,82.143394 
	C124.893379,85.970184 120.583977,89.796974 116.274574,93.623764 
	C116.871483,94.335785 117.468384,95.047813 118.065292,95.759834 
	C129.661636,88.179085 141.257965,80.598335 152.854309,73.017586 
	C152.699265,72.551697 152.544220,72.085808 152.389160,71.619919 
	C146.230850,71.619919 140.072540,71.619919 132.596817,71.619919 
	C141.006180,63.366936 148.404434,56.106251 156.042816,48.609890 
	C153.946243,45.671452 151.980713,42.916664 150.255234,40.498325 
	C143.427170,47.097912 137.000107,53.372711 130.501892,59.572941 
	C124.081131,65.699272 117.588463,71.750244 111.127342,77.834282 
	C111.469574,78.513680 111.811806,79.193077 112.154045,79.872475 
	C117.636581,80.109573 123.119118,80.346664 129.081589,81.092194 
M105.326210,30.051548 
	C79.960373,22.772547 54.631760,33.402866 44.313377,46.465179 
	C46.280685,48.335949 48.272984,50.230480 50.219944,52.081898 
	C75.793358,31.215023 101.028908,31.742189 125.835121,51.707935 
	C128.126602,49.777603 130.126541,48.092854 132.409912,46.169346 
	C124.603958,38.278522 115.941170,33.307049 105.326210,30.051548 
M58.381039,93.201622 
	C54.512043,89.199806 50.643047,85.197990 46.252762,80.656982 
	C53.073227,80.288971 58.917164,79.973648 64.761101,79.658333 
	C64.877899,79.223991 64.994698,78.789650 65.111496,78.355309 
	C52.043068,65.869911 38.974644,53.384510 25.756899,40.756451 
	C24.403267,42.681812 22.518490,45.362659 20.399834,48.376171 
	C27.860270,56.354809 35.099731,64.097122 42.371948,71.874466 
	C36.778942,71.874466 30.618799,71.874466 24.458654,71.874466 
	C24.365057,72.242432 24.271460,72.610397 24.177862,72.978355 
	C37.168404,81.714409 50.158943,90.450455 63.149483,99.186501 
	C63.440086,98.790680 63.730686,98.394867 64.021294,97.999054 
	C62.308575,96.569122 60.595863,95.139198 58.381039,93.201622 
M61.624306,54.086914 
	C60.076237,55.507946 58.528168,56.928978 57.027306,58.306675 
	C61.869751,65.133598 61.796131,65.021332 67.841164,61.057251 
	C79.623100,53.331158 91.949074,52.288670 104.602135,58.770016 
	C107.663795,60.338310 110.396019,62.549759 113.608772,64.684044 
	C115.524666,62.670269 117.403694,60.695240 119.596489,58.390423 
	C117.991676,56.977985 116.841072,55.820671 115.549751,54.850708 
	C99.028206,42.440716 81.640640,42.064781 61.624306,54.086914 
M105.824326,72.464355 
	C105.594475,71.388336 105.729919,69.795975 105.069405,69.328682 
	C102.645889,67.614105 100.085915,65.956795 97.346413,64.848846 
	C87.526237,60.877239 74.845665,64.029800 69.620399,71.973587 
	C71.231934,73.606827 72.935478,75.333313 74.741920,77.164078 
	C83.849335,69.898514 92.545914,70.141609 102.298698,77.646400 
	C103.343895,76.049133 104.355820,74.502708 105.824326,72.464355 
z"/>
<path fill="#F3F1E8" opacity="1.000000" stroke="none" 
	d="
M175.354691,137.960587 
	C174.918243,92.609177 174.957962,47.273247 174.998840,1.468656 
	C226.354233,1.000000 277.708466,1.000000 329.531342,1.000000 
	C329.998779,44.621780 329.929199,88.243820 330.096893,131.864960 
	C330.114624,136.477859 329.190918,138.130188 324.177704,138.110382 
	C274.729370,137.914932 225.279968,137.982819 175.354691,137.960587 
M230.263382,73.922920 
	C229.524628,73.995995 228.785858,74.069069 227.338043,73.971085 
	C226.611038,73.919838 225.884048,73.868591 225.093979,73.408722 
	C225.093979,73.408722 224.935303,73.026932 225.164810,72.529411 
	C225.815491,72.252625 226.466187,71.975838 227.917084,71.593063 
	C229.298157,71.138184 230.841980,70.937691 232.028442,70.178635 
	C235.059937,68.239151 234.997223,61.891666 232.003769,59.995949 
	C232.003769,59.995949 232.080582,59.941952 232.402237,59.166565 
	C230.613342,58.417717 228.824448,57.668869 226.992340,56.979206 
	C226.992340,56.979206 227.060593,56.952526 226.774857,56.172874 
	C224.372116,56.442688 221.969376,56.712502 219.017746,57.358528 
	C216.058777,58.928459 213.099808,60.498390 209.664688,62.470398 
	C210.156433,63.549088 210.351669,65.099731 211.190155,65.626534 
	C215.289093,68.201813 219.559586,70.504059 223.130234,73.209373 
	C220.428650,74.424965 217.727066,75.640556 214.886078,75.981789 
	C215.028564,73.216331 213.711716,71.737236 210.376419,71.063019 
	C207.246704,71.871429 204.116989,72.679832 200.722885,73.176979 
	C199.771545,73.690369 198.820190,74.203751 197.867569,74.717834 
	C202.973892,82.223579 207.390945,82.955132 214.494278,77.469139 
	C214.744354,77.276009 214.899231,76.959595 215.701431,77.288994 
	C217.644928,80.812500 218.875458,85.227013 225.123322,84.199753 
	C226.788422,83.623428 228.453522,83.047104 230.432404,82.507614 
	C230.568558,82.669830 230.703522,82.833031 230.708115,83.644737 
	C231.507904,83.703743 232.307709,83.762741 233.647202,84.217010 
	C233.732452,85.089706 233.817688,85.962402 233.252533,87.293190 
	C233.438049,93.352661 233.623566,99.412132 233.821457,105.572533 
	C233.821457,105.572533 233.912552,105.617722 234.082153,106.240341 
	C234.384140,106.541306 234.686127,106.842270 234.783310,107.689156 
	C235.296814,110.126686 235.174347,112.989029 236.458633,114.911697 
	C238.989059,118.699890 236.681305,119.712898 233.954269,120.891647 
	C232.633423,121.462578 231.301712,122.008369 229.263504,122.698425 
	C224.499893,122.305405 220.486206,123.522789 217.350388,128.223969 
	C216.696426,129.541992 216.042465,130.860016 214.848923,133.265549 
	C223.027481,132.886032 230.031250,132.561035 237.966064,132.303497 
	C246.296143,132.182587 254.626221,132.061661 263.582062,132.084671 
	C263.793152,132.049271 264.004211,132.013885 264.676270,132.220734 
	C265.698944,132.133713 266.721588,132.046692 268.575958,132.076111 
	C270.451355,131.433075 272.326752,130.790054 274.202148,130.147018 
	C273.107452,128.120361 272.491028,125.369514 270.796844,124.250504 
	C268.682678,122.854134 265.680725,122.801895 262.154419,122.016182 
	C255.470734,122.429626 249.161880,121.965538 246.132355,114.659645 
	C245.910782,112.827072 246.028015,110.871040 245.412506,109.182022 
	C241.496063,98.434654 241.471344,98.308861 249.559814,91.934738 
	C252.096115,89.668015 254.632416,87.401291 257.875305,85.144142 
	C259.289185,84.201759 260.703033,83.259377 262.652130,81.923988 
	C263.421356,80.983978 264.190582,80.043968 265.219055,79.656479 
	C265.799500,79.803490 266.379974,79.950508 267.113098,80.778961 
	C268.164368,80.903954 269.215637,81.028946 270.761078,81.341042 
	C272.178467,81.188591 273.595825,81.036148 275.719299,80.982361 
	C276.655151,80.315689 277.590973,79.649017 278.500549,78.999397 
	C278.500549,78.999397 278.512665,78.995338 279.086487,79.208748 
	C281.459625,76.813751 283.832764,74.418755 286.587311,72.343193 
	C286.928558,72.907280 287.269775,73.471375 287.808716,74.854012 
	C287.843323,75.413460 287.877930,75.972900 288.110565,77.205963 
	C292.739929,80.666969 297.661774,79.693970 300.979858,74.164398 
	C299.244141,73.192032 297.504333,72.217354 295.661041,71.312172 
	C295.661041,71.312172 295.538666,71.335777 295.791809,70.755424 
	C295.866516,70.341202 295.941193,69.926979 296.707642,69.239388 
	C298.921051,67.653564 301.134491,66.067749 304.406952,63.723167 
	C301.553680,62.615932 300.269836,62.117718 298.710327,61.464382 
	C298.710327,61.464382 298.401276,61.531883 298.385468,61.509624 
	C298.385468,61.509624 298.413116,61.490261 298.207611,60.858749 
	C299.849976,58.105927 301.543518,55.382019 303.120667,52.592323 
	C304.761566,49.689735 304.166656,47.587017 300.517761,47.954243 
	C297.039215,48.304329 293.632202,49.365826 289.331329,50.040291 
	C284.399719,49.643047 279.468109,49.245804 274.263855,48.826595 
	C274.263855,47.857269 274.263855,46.435944 274.263855,44.873428 
	C275.581146,44.873428 276.840118,44.873428 278.078339,44.899841 
	C278.078339,44.899841 278.077179,44.927227 278.128937,45.675549 
	C282.022308,48.921463 284.341400,45.946060 286.713013,43.443104 
	C287.630127,42.475204 288.340210,41.311089 289.214996,40.950115 
	C290.262482,45.014980 293.126434,46.153374 297.624084,45.646629 
	C301.556000,44.055088 302.477539,40.630451 303.044128,36.918545 
	C303.652008,32.936356 302.647064,30.746042 297.355469,31.995838 
	C294.226227,33.985603 291.097015,35.975365 288.048248,37.170258 
	C287.917603,35.657246 287.786926,34.144238 287.672424,32.818256 
	C285.371796,32.818256 283.706207,32.818256 282.029419,32.048733 
	C282.703308,28.854771 283.650360,25.681187 283.891052,22.454906 
	C283.967072,21.435757 281.919006,19.216160 281.245758,19.365189 
	C278.471893,19.979185 275.852814,21.292635 272.788818,22.812923 
	C271.868713,23.878881 270.948639,24.944841 269.542358,25.685343 
	C269.157288,24.805206 268.772217,23.925070 268.148529,22.327374 
	C266.806091,19.900822 265.691193,17.300097 264.024017,15.122128 
	C263.205841,14.053282 261.185394,13.061913 260.039764,13.350133 
	C259.103516,13.585681 258.657959,15.771813 257.511719,17.550169 
	C256.667145,20.037285 255.822617,22.524403 254.479370,25.352566 
	C254.935150,26.296049 255.390930,27.239532 255.932526,28.662018 
	C255.999466,28.980728 256.097961,29.289368 255.625900,30.094450 
	C252.074020,35.437305 251.928040,29.353724 250.119400,27.803411 
	C248.754700,27.203409 247.389999,26.603409 245.775681,25.332491 
	C239.696518,21.671480 238.749695,22.143131 237.856216,28.972967 
	C237.756729,29.733419 236.644318,30.361361 235.395401,30.682392 
	C232.666519,29.291424 229.937637,27.900455 226.458984,26.127316 
	C226.674194,30.354177 226.816498,33.149143 226.958527,36.676159 
	C228.955109,40.281151 231.659958,42.402302 236.589798,41.542141 
	C236.947021,44.025055 237.304245,46.507969 237.842545,49.469688 
	C237.896820,49.631462 237.951080,49.793236 237.977509,50.741283 
	C238.306580,55.536057 240.988342,58.609486 244.624496,60.041344 
	C244.025574,61.965931 243.534485,63.544025 242.921600,65.809319 
	C241.247513,68.844887 239.573425,71.880463 237.291718,75.093369 
	C236.250809,75.697716 235.209900,76.302055 233.841217,76.410507 
	C233.258057,75.907112 232.674896,75.403717 231.891983,74.442009 
	C231.585983,74.343758 231.279968,74.245499 230.263382,73.922920 
M204.008453,64.021057 
	C204.008453,64.021057 204.016052,64.095291 204.849213,64.081940 
	C208.878555,62.875561 207.486801,59.377499 206.947342,57.213028 
	C206.597702,55.810162 203.668121,55.050301 201.282455,53.816536 
	C200.865524,53.880062 200.448608,53.943592 199.254150,53.951000 
	C195.514618,54.476398 191.871536,55.802830 191.443314,59.844986 
	C191.316559,61.041344 195.028107,62.644333 196.975891,63.995560 
	C196.975891,63.995560 196.923004,64.034401 197.117050,64.252937 
	C197.117050,64.252937 197.531708,64.270164 197.531708,64.270164 
	C197.531708,64.270164 197.826752,63.980717 198.485336,64.067780 
	C199.289871,64.380096 200.094406,64.692413 201.617523,65.164093 
	C202.438370,64.790054 203.259232,64.416016 204.008453,64.021057 
M222.954620,50.799126 
	C225.678940,51.352852 228.534561,52.630161 231.074783,52.169258 
	C232.440216,51.921509 233.575012,48.771400 234.102966,46.745617 
	C234.226929,46.269947 231.475052,45.044769 229.261566,43.946934 
	C226.237228,43.780178 223.212875,43.613422 218.785522,43.369305 
	C220.702042,46.597267 221.731415,48.331020 222.954620,50.799126 
M213.766327,46.113956 
	C215.158112,45.924057 216.549881,45.734158 219.563324,45.322987 
	C217.506927,42.024853 216.590073,38.756336 214.495392,37.573326 
	C210.278992,35.192039 205.641647,35.797863 200.488037,39.398216 
	C202.569916,41.205925 204.271881,42.683762 206.344437,44.808197 
	C208.534576,45.194099 210.724731,45.580006 213.766327,46.113956 
z"/>
<path fill="#070508" opacity="1.000000" stroke="none" 
	d="
M381.170532,62.930828 
	C381.588074,63.691303 382.050964,64.039810 382.513885,64.388321 
	C383.844727,61.901699 385.198669,59.427109 386.501801,56.926064 
	C389.705475,50.777306 389.696075,50.772411 397.667816,51.217388 
	C392.555176,60.513580 387.875702,69.780472 382.320618,78.488846 
	C381.197021,80.250267 376.762268,79.899483 373.167114,80.669609 
	C373.471619,74.411064 373.730194,69.095566 373.988800,63.780067 
	C373.726440,63.710297 373.464111,63.640530 373.201752,63.570759 
	C370.932953,67.169891 368.229431,70.573341 366.500000,74.415260 
	C364.070404,79.812500 360.331360,81.161728 354.496307,79.506920 
	C355.594666,70.255501 356.703613,60.914776 357.845825,51.293842 
	C360.586090,51.293842 363.129974,51.293842 366.026825,51.293842 
	C365.474365,55.611263 364.937683,59.805492 364.401001,63.999718 
	C364.749817,64.167915 365.098602,64.336105 365.447418,64.504295 
	C367.007477,61.937222 368.569000,59.371029 370.127289,56.802876 
	C373.859161,50.652512 373.858582,50.652153 381.983002,51.295490 
	C381.728119,55.024746 381.472015,58.771805 381.170532,62.930828 
z"/>
<path fill="#040304" opacity="1.000000" stroke="none" 
	d="
M452.382019,68.005875 
	C450.222839,69.125290 448.511658,70.244667 446.800446,71.364037 
	C447.057312,71.877937 447.314148,72.391830 447.570984,72.905731 
	C452.328491,72.905731 457.085968,72.905731 462.450806,72.905731 
	C461.569855,75.550507 460.856537,77.691963 460.136841,79.852707 
	C452.065308,79.852707 444.279480,79.852707 436.089142,79.852707 
	C439.150116,70.801178 442.033539,61.975056 445.214813,53.257637 
	C445.599854,52.202648 447.573273,51.135624 448.843536,51.094536 
	C455.485504,50.879715 462.138092,50.994236 469.364258,50.994236 
	C468.603394,53.412331 467.945679,55.502567 467.349487,57.397392 
	C462.135284,59.419785 456.239655,55.958694 451.794525,60.785576 
	C456.013428,60.785576 460.232330,60.785576 465.189728,60.785576 
	C464.280121,63.474155 463.567596,65.580223 462.746948,68.005844 
	C459.442352,68.005844 456.136169,68.005844 452.382019,68.005875 
z"/>
<path fill="#0C0A0B" opacity="1.000000" stroke="none" 
	d="
M408.906311,76.041855 
	C407.969727,70.211937 407.969727,70.211937 415.007874,70.126740 
	C417.524597,71.911621 419.117950,73.906136 420.836029,74.020111 
	C422.599823,74.137108 424.485474,72.416367 426.317810,71.499893 
	C426.225464,70.953873 426.133087,70.407860 426.040741,69.861839 
	C423.647095,68.966599 421.262451,68.046280 418.858032,67.180923 
	C412.321716,64.828438 411.152710,59.752254 416.322937,55.151169 
	C421.506409,50.538208 427.723846,49.783466 434.029785,52.080227 
	C435.701508,52.689091 436.752197,55.337769 437.735596,57.232769 
	C437.944519,57.635319 436.453674,59.625366 436.024078,59.536686 
	C433.652771,59.047165 430.897064,61.826672 428.772003,58.097340 
	C426.849670,54.723709 424.183624,56.148716 421.127686,59.343239 
	C424.474487,60.382935 427.180695,61.143566 429.831238,62.064468 
	C434.671875,63.746296 436.119965,66.469673 434.590668,70.777046 
	C431.336090,79.943985 415.931305,83.338867 408.906311,76.041855 
z"/>
<path fill="#08060A" opacity="1.000000" stroke="none" 
	d="
M401.245087,77.507156 
	C398.171722,78.869576 395.248444,79.856506 391.135559,81.245087 
	C394.924408,70.103851 398.116974,60.715946 401.363342,51.169960 
	C404.174835,51.169960 406.961090,51.169960 410.113159,51.169960 
	C407.158478,59.968880 404.276825,68.550278 401.245087,77.507156 
z"/>
<path fill="#EA5A61" opacity="1.000000" stroke="none" 
	d="
M137.230316,27.894842 
	C137.517258,27.937609 137.756393,28.068020 138.126190,28.781296 
	C138.674088,29.458593 139.043518,29.640669 139.412949,29.822742 
	C139.862961,30.055637 140.312988,30.288532 140.983688,30.984045 
	C141.485016,31.622240 141.765656,31.797817 142.046295,31.973396 
	C142.046295,31.973398 141.997620,31.996222 142.008148,32.391075 
	C142.122650,33.610809 142.226624,34.435692 142.330597,35.260571 
	C142.330597,35.260571 142.299637,35.241791 141.981842,35.295067 
	C141.432648,35.883732 141.201263,36.419121 140.969879,36.954514 
	C140.969879,36.954514 140.999847,36.999969 140.672974,37.014664 
	C139.969620,37.440407 139.593140,37.851463 139.216644,38.262520 
	C139.216644,38.262520 139.246170,38.277401 138.832794,38.195526 
	C137.574966,38.099079 136.730499,38.084503 135.886032,38.069927 
	C135.314316,37.617085 134.742615,37.164234 133.943176,36.185833 
	C133.367798,35.493656 133.020142,35.327038 132.672501,35.160416 
	C123.106880,28.341469 112.905792,22.807756 101.182381,20.861759 
	C79.659683,17.289154 60.216507,22.053364 43.199284,35.960022 
	C41.659237,37.218567 40.111115,38.467236 37.971306,40.203686 
	C36.224552,38.036552 34.507401,35.906143 32.767925,33.748039 
	C54.171200,8.854513 102.073372,0.505068 135.943298,26.943054 
	C136.582748,27.603363 136.906525,27.749104 137.230316,27.894842 
z"/>
<path fill="#E85A60" opacity="1.000000" stroke="none" 
	d="
M105.723312,30.134270 
	C115.941170,33.307049 124.603958,38.278522 132.409912,46.169346 
	C130.126541,48.092854 128.126602,49.777603 125.835121,51.707935 
	C101.028908,31.742189 75.793358,31.215023 50.219944,52.081898 
	C48.272984,50.230480 46.280685,48.335949 44.313377,46.465179 
	C54.631760,33.402866 79.960373,22.772547 105.723312,30.134270 
z"/>
<path fill="#F3F6F7" opacity="1.000000" stroke="none" 
	d="
M58.632095,93.455444 
	C60.595863,95.139198 62.308575,96.569122 64.021294,97.999054 
	C63.730686,98.394867 63.440086,98.790680 63.149483,99.186501 
	C50.158943,90.450455 37.168404,81.714409 24.177862,72.978355 
	C24.271460,72.610397 24.365057,72.242432 24.458654,71.874466 
	C30.618799,71.874466 36.778942,71.874466 42.371948,71.874466 
	C35.099731,64.097122 27.860270,56.354809 20.399834,48.376171 
	C22.518490,45.362659 24.403267,42.681812 25.756899,40.756451 
	C38.974644,53.384510 52.043068,65.869911 65.111496,78.355309 
	C64.994698,78.789650 64.877899,79.223991 64.761101,79.658333 
	C58.917164,79.973648 53.073227,80.288971 46.252762,80.656982 
	C50.643047,85.197990 54.512043,89.199806 58.632095,93.455444 
z"/>
<path fill="#F6F6F8" opacity="1.000000" stroke="none" 
	d="
M128.601654,80.583763 
	C123.119118,80.346664 117.636581,80.109573 112.154045,79.872475 
	C111.811806,79.193077 111.469574,78.513680 111.127342,77.834282 
	C117.588463,71.750244 124.081131,65.699272 130.501892,59.572941 
	C137.000107,53.372711 143.427170,47.097912 150.255234,40.498325 
	C151.980713,42.916664 153.946243,45.671452 156.042816,48.609890 
	C148.404434,56.106251 141.006180,63.366936 132.596817,71.619919 
	C140.072540,71.619919 146.230850,71.619919 152.389160,71.619919 
	C152.544220,72.085808 152.699265,72.551697 152.854309,73.017586 
	C141.257965,80.598335 129.661636,88.179085 118.065292,95.759834 
	C117.468384,95.047813 116.871483,94.335785 116.274574,93.623764 
	C120.583977,89.796974 124.893379,85.970184 129.692871,81.664780 
	C130.320267,80.711563 130.457565,80.236961 130.594864,79.762360 
	C129.930466,80.036156 129.266052,80.309959 128.601654,80.583763 
z"/>
<path fill="#A4A1E5" opacity="1.000000" stroke="none" 
	d="
M73.026642,112.915268 
	C76.313522,103.384903 79.407768,93.778969 83.086006,84.402115 
	C83.666489,82.922295 87.177490,81.387161 88.815224,81.823418 
	C90.999512,82.405266 93.557823,84.529984 94.416260,86.623238 
	C97.817627,94.917244 100.618965,103.457314 103.285782,112.319901 
	C92.961449,112.794167 82.994041,112.854713 73.026642,112.915268 
z"/>
<path fill="#E85A60" opacity="1.000000" stroke="none" 
	d="
M61.913303,53.874775 
	C81.640640,42.064781 99.028206,42.440716 115.549751,54.850708 
	C116.841072,55.820671 117.991676,56.977985 119.596489,58.390423 
	C117.403694,60.695240 115.524666,62.670269 113.608772,64.684044 
	C110.396019,62.549759 107.663795,60.338310 104.602135,58.770016 
	C91.949074,52.288670 79.623100,53.331158 67.841164,61.057251 
	C61.796131,65.021332 61.869751,65.133598 57.027306,58.306675 
	C58.528168,56.928978 60.076237,55.507946 61.913303,53.874775 
z"/>
<path fill="#EABB67" opacity="1.000000" stroke="none" 
	d="
M112.041260,121.001297 
	C112.599174,123.040733 114.046303,125.410202 113.448555,127.020714 
	C112.919952,128.444946 110.127541,129.817917 108.311111,129.849197 
	C94.982498,130.078781 81.647339,130.040237 68.315636,129.924713 
	C62.522491,129.874512 60.862083,126.730804 64.303307,121.210320 
	C80.735886,121.018402 96.388573,121.009850 112.041260,121.001297 
z"/>
<path fill="#E55B62" opacity="1.000000" stroke="none" 
	d="
M105.596039,72.710320 
	C104.355820,74.502708 103.343895,76.049133 102.298698,77.646400 
	C92.545914,70.141609 83.849335,69.898514 74.741920,77.164078 
	C72.935478,75.333313 71.231934,73.606827 69.620399,71.973587 
	C74.845665,64.029800 87.526237,60.877239 97.346413,64.848846 
	C100.085915,65.956795 102.645889,67.614105 105.069405,69.328682 
	C105.729919,69.795975 105.594475,71.388336 105.596039,72.710320 
z"/>
<path fill="#2E2D51" opacity="1.000000" stroke="none" 
	d="
M73.018250,113.300659 
	C82.994041,112.854713 92.961449,112.794167 103.377991,112.649139 
	C104.050575,113.577896 104.274017,114.591125 103.779602,115.802132 
	C93.041267,115.999428 83.020782,115.998947 73.000305,115.998474 
	C73.003487,115.227669 73.006668,114.456863 73.018250,113.300659 
z"/>
<path fill="#2D232E" opacity="1.000000" stroke="none" 
	d="
M103.992569,117.963356 
	C105.820847,118.114029 107.649117,118.264702 109.528412,118.750015 
	C109.269463,119.151924 109.025307,119.316689 108.389160,119.591164 
	C94.335381,119.610970 80.739388,119.618553 66.991928,119.465790 
	C66.578911,119.158890 66.298553,119.075409 65.999413,119.055008 
	C66.775208,118.698769 67.551010,118.342529 69.136688,117.984055 
	C81.295235,117.975662 92.643906,117.969513 103.992569,117.963356 
z"/>
<path fill="#363457" opacity="1.000000" stroke="none" 
	d="
M103.995224,117.636757 
	C92.643906,117.969513 81.295235,117.975662 69.479538,117.968941 
	C70.092361,117.304352 71.172234,116.652634 72.626205,115.999695 
	C83.020782,115.998947 93.041267,115.999428 103.530266,116.001328 
	C103.998482,116.438553 103.998177,116.874352 103.995224,117.636757 
z"/>
<path fill="#E0BC82" opacity="1.000000" stroke="none" 
	d="
M67.143387,119.626144 
	C80.739388,119.618553 94.335381,119.610970 108.697647,119.724487 
	C109.686951,119.827660 109.910004,119.809715 110.133049,119.791779 
	C110.664017,120.030449 111.194984,120.269112 111.883606,120.754539 
	C96.388573,121.009850 80.735886,121.018402 64.627449,121.041260 
	C64.574623,120.717705 64.977554,120.379837 65.968925,119.972168 
	C66.752708,119.810287 66.948051,119.718216 67.143387,119.626144 
z"/>
<path fill="#CC5968" opacity="1.000000" stroke="none" 
	d="
M142.613281,35.179234 
	C142.226624,34.435692 142.122650,33.610809 142.026733,32.371391 
	C142.321854,33.003868 142.608902,34.050880 142.613281,35.179234 
z"/>
<path fill="#CC5968" opacity="1.000000" stroke="none" 
	d="
M136.026993,38.344231 
	C136.730499,38.084503 137.574966,38.099079 138.835953,38.211754 
	C138.224304,38.412746 137.196121,38.515644 136.026993,38.344231 
z"/>
<path fill="#CC5968" opacity="1.000000" stroke="none" 
	d="
M139.504166,38.222675 
	C139.593140,37.851463 139.969620,37.440407 140.650269,36.999622 
	C140.566849,37.374203 140.179260,37.778519 139.504166,38.222675 
z"/>
<path fill="#CC5968" opacity="1.000000" stroke="none" 
	d="
M141.232986,36.835796 
	C141.201263,36.419121 141.432648,35.883732 141.965332,35.287617 
	C142.009781,35.723621 141.752930,36.220352 141.232986,36.835796 
z"/>
<path fill="#836A4C" opacity="1.000000" stroke="none" 
	d="
M66.991928,119.465797 
	C66.948051,119.718216 66.752708,119.810287 66.233215,119.892075 
	C65.909065,119.881790 65.972992,119.469910 65.986206,119.262459 
	C66.298553,119.075409 66.578911,119.158890 66.991928,119.465797 
z"/>
<path fill="#836A4C" opacity="1.000000" stroke="none" 
	d="
M110.101624,119.586166 
	C109.910004,119.809715 109.686951,119.827660 109.155426,119.712273 
	C109.025307,119.316689 109.269463,119.151924 109.797684,119.026382 
	C110.015945,118.968109 110.070198,119.380554 110.101624,119.586166 
z"/>
<path fill="#CC5968" opacity="1.000000" stroke="none" 
	d="
M132.824280,35.393951 
	C133.020142,35.327038 133.367798,35.493656 133.806885,35.946259 
	C133.590897,36.030655 133.283463,35.829067 132.824280,35.393951 
z"/>
<path fill="#CC5968" opacity="1.000000" stroke="none" 
	d="
M141.945847,31.741360 
	C141.765656,31.797817 141.485016,31.622240 141.107178,31.212193 
	C141.288437,31.154922 141.566925,31.332123 141.945847,31.741360 
z"/>
<path fill="#CC5968" opacity="1.000000" stroke="none" 
	d="
M139.255478,29.574238 
	C139.043518,29.640669 138.674088,29.458593 138.226257,28.963303 
	C138.464569,28.875299 138.781281,29.100515 139.255478,29.574238 
z"/>
<path fill="#CC5968" opacity="1.000000" stroke="none" 
	d="
M137.091049,27.667782 
	C136.906525,27.749104 136.582748,27.603363 136.140396,27.211607 
	C136.331818,27.123966 136.641800,27.282343 137.091049,27.667782 
z"/>
<path fill="#35D48C" opacity="1.000000" stroke="none" 
	d="
M237.899338,74.916031 
	C239.573425,71.880463 241.247513,68.844887 243.286255,65.426186 
	C244.395782,64.757530 245.140671,64.472015 245.910263,64.531418 
	C246.245377,65.929504 246.555771,66.982681 246.908524,68.400742 
	C245.684372,71.851830 244.417862,74.938034 242.993164,78.359024 
	C242.511292,80.122887 242.187592,81.551964 241.517975,83.056625 
	C240.564789,85.151833 239.957520,87.171463 239.350250,89.191093 
	C240.235977,89.125023 241.121719,89.058952 242.003723,88.996597 
	C242.000000,89.000305 242.003387,88.991722 242.125641,89.288406 
	C242.574097,90.149483 242.900269,90.713882 243.202118,91.662506 
	C239.572052,99.081009 240.858200,111.026199 245.645325,114.964363 
	C249.161880,121.965538 255.470734,122.429626 262.674622,122.432266 
	C266.079163,124.732620 268.963501,126.616898 271.847809,128.501175 
	C271.582733,129.018845 271.317688,129.536530 271.052612,130.054199 
	C268.260986,130.054199 265.466705,129.975174 262.678314,130.070251 
	C256.433868,130.283157 250.192352,130.582718 243.513367,130.882751 
	C241.015259,130.948227 238.953400,130.977936 236.431519,130.965942 
	C231.312103,130.929230 226.646301,131.070389 221.997421,130.851807 
	C220.691635,130.790421 219.435532,129.671906 218.505859,129.010468 
	C222.561691,126.843597 226.268295,124.704567 229.974899,122.565536 
	C231.301712,122.008369 232.633423,121.462578 233.954269,120.891647 
	C236.681305,119.712898 238.989059,118.699890 236.458633,114.911697 
	C235.174347,112.989029 235.296814,110.126686 234.809326,107.103088 
	C234.527725,106.217255 234.220139,105.917496 233.912552,105.617722 
	C233.912552,105.617722 233.821457,105.572533 234.110260,105.246140 
	C234.233688,98.891533 234.068314,92.863312 233.902924,86.835098 
	C233.817688,85.962402 233.732452,85.089706 233.472900,83.786484 
	C233.592468,82.944435 233.886322,82.532928 234.326233,82.062820 
	C234.472305,82.004211 234.782181,81.948853 235.113007,81.831909 
	C235.679108,80.833206 235.914398,79.951454 236.394318,78.845200 
	C237.059097,77.385803 237.479218,76.150917 237.899338,74.916031 
z"/>
<path fill="#E5E4DC" opacity="1.000000" stroke="none" 
	d="
M296.015869,69.512756 
	C295.941193,69.926979 295.866516,70.341202 295.328064,70.871857 
	C292.446533,72.004021 290.028778,73.019753 287.610992,74.035469 
	C287.269775,73.471375 286.928558,72.907280 286.402283,71.857697 
	C286.213806,70.938072 286.210358,70.503929 286.504486,69.861298 
	C285.878143,68.631012 285.025391,66.812637 284.018341,66.722725 
	C279.174286,66.290245 274.288574,66.324280 269.064392,66.037003 
	C264.861450,63.109650 261.096344,59.944847 255.618042,63.154007 
	C253.770020,64.102890 252.267334,65.037102 250.565247,65.722610 
	C251.265045,62.061005 252.119598,58.649635 250.299042,55.214508 
	C250.782486,54.729095 250.981232,54.370113 251.517136,53.930279 
	C253.638794,51.996281 253.616150,50.617599 250.795670,49.674240 
	C250.523636,48.874119 250.289963,48.363174 250.499176,47.843597 
	C254.142456,47.834961 257.342865,47.834961 260.208588,47.834961 
	C261.116974,49.705147 261.998383,51.519810 263.118042,53.597130 
	C265.194305,54.182552 267.032379,54.505314 269.149231,54.949631 
	C269.923584,55.422977 270.419098,55.774765 270.982300,56.495552 
	C271.999115,58.848949 272.948242,60.833347 273.801270,62.616829 
	C279.569885,64.560997 282.378235,60.818813 285.440002,56.968872 
	C286.642487,56.286701 287.559296,55.649666 288.674591,55.329853 
	C289.907806,57.011131 291.154816,58.271633 291.890961,59.781281 
	C292.280945,60.581066 291.783081,61.813786 291.305420,62.891869 
	C288.064270,68.652275 292.793854,68.499290 296.015869,69.512756 
z"/>
<path fill="#DDDED7" opacity="1.000000" stroke="none" 
	d="
M288.476074,55.012630 
	C287.559296,55.649666 286.642487,56.286701 285.398865,56.589447 
	C286.209381,53.073315 285.190155,51.668671 281.724670,51.863380 
	C278.579407,52.040096 275.417847,51.925755 272.208710,51.926399 
	C272.153961,51.913071 272.066559,51.976555 272.063324,51.535988 
	C271.735168,48.323795 271.410217,45.552170 270.874023,42.487137 
	C268.741547,42.828911 266.820282,43.464096 264.664856,44.058922 
	C264.430634,44.018562 263.971893,44.143024 263.648376,44.053623 
	C262.880798,43.987740 262.436737,44.011257 261.693695,43.797108 
	C260.482086,41.464901 259.569458,39.370361 258.517639,37.007603 
	C257.623932,35.799553 256.869354,34.859726 256.247559,33.569275 
	C258.563782,32.722546 260.747253,32.226437 263.292023,31.878578 
	C264.743713,30.705385 265.834106,29.383942 266.885803,27.741089 
	C266.956329,26.004061 267.065552,24.588442 267.476135,23.124451 
	C267.980743,23.065695 268.183960,23.055315 268.387146,23.044935 
	C268.772217,23.925070 269.157288,24.805206 269.781525,26.253185 
	C270.085358,32.443375 273.139313,34.727955 278.425964,32.751770 
	C279.458405,31.561071 280.569855,30.567207 280.801056,29.399113 
	C281.279785,26.980740 281.290344,24.469704 281.493439,21.996773 
	C279.502319,22.266954 277.511200,22.537138 275.287170,22.584732 
	C274.428467,22.357738 273.802673,22.353334 273.176849,22.348930 
	C275.852814,21.292635 278.471893,19.979185 281.245758,19.365189 
	C281.919006,19.216160 283.967072,21.435757 283.891052,22.454906 
	C283.650360,25.681187 282.703308,28.854771 281.677124,32.513737 
	C277.058868,36.078339 275.860291,40.009789 278.099060,44.873428 
	C276.840118,44.873428 275.581146,44.873428 274.263855,44.873428 
	C274.263855,46.435944 274.263855,47.857269 274.263855,48.826595 
	C279.468109,49.245804 284.399719,49.643047 289.615051,50.422230 
	C289.424561,52.206989 288.950317,53.609810 288.476074,55.012630 
z"/>
<path fill="#35D28E" opacity="1.000000" stroke="none" 
	d="
M210.140854,62.068321 
	C213.099808,60.498390 216.058777,58.928459 219.770172,57.198029 
	C222.701920,57.009193 224.881256,56.980862 227.060593,56.952526 
	C227.060593,56.952526 226.992340,56.979206 227.031769,57.311295 
	C228.740997,58.409573 230.410782,59.175758 232.080582,59.941948 
	C232.080582,59.941952 232.003769,59.995949 231.973297,60.349823 
	C229.891800,61.944702 227.840759,63.185707 225.522034,64.588684 
	C227.495819,65.466225 229.293030,66.265266 232.048157,67.490196 
	C229.740402,68.649910 228.374786,69.336174 226.590546,70.007767 
	C219.333389,70.375443 214.862076,65.969109 210.140854,62.068321 
z"/>
<path fill="#32D38D" opacity="1.000000" stroke="none" 
	d="
M278.512665,78.995338 
	C278.512665,78.995338 278.500549,78.999397 278.074707,78.931732 
	C276.769897,78.923332 275.890991,78.982605 274.596252,79.031853 
	C272.368073,78.347740 270.555695,77.673660 268.958496,76.740585 
	C268.272827,75.141220 267.371918,73.800850 266.375153,72.317810 
	C269.833405,66.393402 279.013824,65.118637 284.757111,70.346054 
	C282.573425,73.421059 280.543030,76.208199 278.512665,78.995338 
z"/>
<path fill="#38D08F" opacity="1.000000" stroke="none" 
	d="
M250.056290,47.852230 
	C250.289963,48.363174 250.523636,48.874119 250.521301,49.863411 
	C250.187332,51.221386 250.089371,52.101009 249.827454,53.224190 
	C249.303284,53.615097 248.943100,53.762451 248.412628,54.091618 
	C247.843262,54.793037 247.444183,55.312637 246.685013,55.911423 
	C245.586823,56.011013 244.848724,56.031425 243.931244,55.757633 
	C241.836334,53.627289 239.920837,51.791145 238.005341,49.955002 
	C237.951080,49.793236 237.896820,49.631462 237.945618,48.886421 
	C238.533218,46.305557 239.017746,44.307957 239.699677,41.496552 
	C243.347672,43.521675 246.670547,45.366306 250.014008,47.370590 
	C250.034592,47.530239 250.056290,47.852230 250.056290,47.852230 
z"/>
<path fill="#D8DBD2" opacity="1.000000" stroke="none" 
	d="
M237.991425,50.348141 
	C239.920837,51.791145 241.836334,53.627289 244.022400,56.089035 
	C245.210358,56.420509 246.127731,56.126381 247.045120,55.832245 
	C247.444183,55.312637 247.843262,54.793037 248.599228,54.381760 
	C249.308868,54.773705 249.661606,55.057320 250.014343,55.340935 
	C252.119598,58.649635 251.265045,62.061005 250.472137,66.035423 
	C250.255829,67.404541 249.933197,68.212166 249.286011,69.117035 
	C248.224091,70.946144 247.695633,72.813316 246.687317,74.369629 
	C245.782928,75.765526 244.350723,76.819450 243.151367,78.024246 
	C244.417862,74.938034 245.684372,71.851830 247.002014,68.055496 
	C247.671585,66.283676 248.289993,65.221977 248.908386,64.160271 
	C247.900772,64.169014 246.893173,64.177757 245.885559,64.186493 
	C245.140671,64.472015 244.395782,64.757530 243.347137,65.082581 
	C243.534485,63.544025 244.025574,61.965931 244.624496,60.041344 
	C240.988342,58.609486 238.306580,55.536057 237.991425,50.348141 
z"/>
<path fill="#35D38E" opacity="1.000000" stroke="none" 
	d="
M267.174774,23.172823 
	C267.065552,24.588442 266.956329,26.004061 266.567322,27.761696 
	C264.694550,27.723337 263.101501,27.342964 261.310242,26.915257 
	C261.184387,27.677441 261.007874,28.746576 260.445801,29.848545 
	C258.782867,29.783564 257.505432,29.685749 256.228027,29.587934 
	C256.097961,29.289368 255.999466,28.980728 256.092224,28.250565 
	C255.827332,26.896582 255.402695,25.954052 254.978058,25.011520 
	C255.822617,22.524403 256.667145,20.037285 258.102966,17.268219 
	C261.262207,15.994517 262.789398,17.039940 264.021942,19.346140 
	C264.785706,20.775185 266.104919,21.907377 267.174774,23.172823 
z"/>
<path fill="#567667" opacity="1.000000" stroke="none" 
	d="
M288.674591,55.329853 
	C288.950317,53.609810 289.424561,52.206989 290.046265,50.459370 
	C293.632202,49.365826 297.039215,48.304329 300.517761,47.954243 
	C304.166656,47.587017 304.761566,49.689735 303.120667,52.592323 
	C301.543518,55.382019 299.849976,58.105927 297.955780,61.228790 
	C295.697968,62.016235 293.692017,62.433643 291.686035,62.851051 
	C291.783081,61.813786 292.280945,60.581066 291.890961,59.781281 
	C291.154816,58.271633 289.907806,57.011131 288.674591,55.329853 
M298.404602,50.014118 
	C297.577148,50.068916 296.588684,49.855980 295.956757,50.235958 
	C294.754456,50.958916 292.804749,52.114395 292.884155,52.921047 
	C293.021027,54.311314 294.422729,56.598686 295.385040,56.645847 
	C296.817017,56.716022 298.768494,55.470669 299.652649,54.197479 
	C300.249878,53.337475 299.390839,51.466187 298.404602,50.014118 
z"/>
<path fill="#43B888" opacity="1.000000" stroke="none" 
	d="
M278.088684,44.886635 
	C275.860291,40.009789 277.058868,36.078339 281.682739,32.898499 
	C283.706207,32.818256 285.371796,32.818256 287.672424,32.818256 
	C287.786926,34.144238 287.917603,35.657246 287.707458,37.741646 
	C285.594940,42.378357 283.554230,46.065918 278.077179,44.927227 
	C278.077179,44.927227 278.078339,44.899841 278.088684,44.886635 
z"/>
<path fill="#D8DBD2" opacity="1.000000" stroke="none" 
	d="
M249.993423,47.210938 
	C246.670547,45.366306 243.347672,43.521675 239.699677,41.496552 
	C239.017746,44.307957 238.533218,46.305557 237.855072,48.647022 
	C237.304245,46.507969 236.947021,44.025055 236.469208,40.980499 
	C237.560165,38.588192 238.771698,36.757523 240.322449,34.972466 
	C241.107254,35.120281 241.552841,35.222481 242.111633,35.546402 
	C242.549698,36.143585 242.874557,36.519043 243.371506,37.224747 
	C245.703659,37.365776 247.863708,37.176559 250.146484,37.434788 
	C250.177261,40.991798 250.085342,44.101368 249.993423,47.210938 
z"/>
<path fill="#419B7F" opacity="1.000000" stroke="none" 
	d="
M226.958801,35.944107 
	C226.816498,33.149143 226.674194,30.354177 226.458984,26.127316 
	C229.937637,27.900455 232.666519,29.291424 235.747711,31.183262 
	C236.739197,32.128529 237.378372,32.572929 237.861511,33.340111 
	C235.336777,38.757347 233.535019,39.311100 229.280945,36.400272 
	C228.682877,35.991039 227.741348,36.083744 226.958801,35.944107 
z"/>
<path fill="#587B66" opacity="1.000000" stroke="none" 
	d="
M284.910431,70.058197 
	C279.013824,65.118637 269.833405,66.393402 266.375153,72.317810 
	C267.371918,73.800850 268.272827,75.141220 268.671844,76.794418 
	C267.787445,77.733406 267.404968,78.359573 267.006409,79.263657 
	C266.980408,79.726883 266.970428,79.912201 266.960419,80.097519 
	C266.379974,79.950508 265.799500,79.803490 265.084412,79.061081 
	C264.639282,77.681602 264.328796,76.897537 263.918427,75.747360 
	C261.359436,69.682632 266.819733,68.809769 269.417664,66.192703 
	C274.288574,66.324280 279.174286,66.290245 284.018341,66.722725 
	C285.025391,66.812637 285.878143,68.631012 286.180420,69.848328 
	C285.342682,70.048622 285.126556,70.053413 284.910431,70.058197 
z"/>
<path fill="#42C28D" opacity="1.000000" stroke="none" 
	d="
M243.199402,36.894505 
	C242.874557,36.519043 242.549698,36.143585 242.126465,35.108261 
	C241.608887,31.521547 241.189667,28.594692 240.725082,25.351067 
	C243.142471,25.648594 244.583893,25.825998 246.025299,26.003407 
	C247.389999,26.603409 248.754700,27.203409 249.940521,28.392166 
	C249.763870,33.434513 247.254913,35.805748 243.199402,36.894505 
z"/>
<path fill="#567F64" opacity="1.000000" stroke="none" 
	d="
M205.973877,44.161594 
	C204.271881,42.683762 202.569916,41.205925 200.488037,39.398216 
	C205.641647,35.797863 210.278992,35.192039 214.495392,37.573326 
	C216.590073,38.756336 217.506927,42.024853 219.563324,45.322987 
	C216.549881,45.734158 215.158112,45.924057 213.352768,45.715469 
	C212.510269,44.351624 212.081329,43.386269 211.742599,42.623940 
	C212.826782,41.910507 213.711014,41.328648 214.595261,40.746784 
	C214.560745,40.281120 214.526230,39.815456 214.491714,39.349792 
	C211.423996,39.118462 208.356277,38.887135 204.685104,38.610298 
	C205.325439,41.368546 205.649658,42.765068 205.973877,44.161594 
z"/>
<path fill="#3F9A78" opacity="1.000000" stroke="none" 
	d="
M200.031677,54.007126 
	C200.448608,53.943592 200.865524,53.880062 201.753860,54.210102 
	C206.243027,57.122135 204.035049,60.815208 204.016052,64.095291 
	C204.016052,64.095291 204.008453,64.021057 203.687439,63.998924 
	C202.543915,64.319443 201.721436,64.662086 200.898941,65.004730 
	C200.094406,64.692413 199.289871,64.380096 197.931580,64.054260 
	C197.377808,64.040749 196.923004,64.034401 196.923004,64.034401 
	C196.923004,64.034401 196.975891,63.995560 196.932190,63.685196 
	C193.260361,59.275650 193.402557,58.652168 198.222610,56.016731 
	C198.968826,55.608730 199.435654,54.689781 200.031677,54.007126 
z"/>
<path fill="#4B966F" opacity="1.000000" stroke="none" 
	d="
M243.949646,130.846985 
	C250.192352,130.582718 256.433868,130.283157 262.678314,130.070251 
	C265.466705,129.975174 268.260986,130.054199 271.052612,130.054199 
	C271.317688,129.536530 271.582733,129.018845 271.847809,128.501175 
	C268.963501,126.616898 266.079163,124.732620 263.128479,122.508835 
	C265.680725,122.801895 268.682678,122.854134 270.796844,124.250504 
	C272.491028,125.369514 273.107452,128.120361 274.202148,130.147018 
	C272.326752,130.790054 270.451355,131.433075 267.809631,132.040894 
	C266.100647,131.996628 265.157990,131.987564 264.215302,131.978516 
	C264.004211,132.013885 263.793152,132.049271 262.991699,131.703247 
	C256.250763,131.163528 250.100204,131.005264 243.949646,130.846985 
z"/>
<path fill="#537963" opacity="1.000000" stroke="none" 
	d="
M291.305420,62.891865 
	C293.692017,62.433643 295.697968,62.016235 298.058533,61.544544 
	C298.413116,61.490261 298.385468,61.509624 298.282410,61.819229 
	C298.239197,62.432995 298.299042,62.737156 298.358887,63.041309 
	C298.567902,62.567371 298.776947,62.093437 298.985992,61.619507 
	C300.269836,62.117718 301.553680,62.615932 304.406952,63.723167 
	C301.134491,66.067749 298.921051,67.653564 296.361755,69.376068 
	C292.793854,68.499290 288.064270,68.652275 291.305420,62.891865 
z"/>
<path fill="#5E836F" opacity="1.000000" stroke="none" 
	d="
M215.098465,76.700638 
	C214.899231,76.959595 214.744354,77.276009 214.494278,77.469139 
	C207.390945,82.955132 202.973892,82.223579 197.867569,74.717834 
	C198.820190,74.203751 199.771545,73.690369 200.880325,73.665253 
	C203.514786,78.519730 205.913528,79.308250 209.703857,77.579727 
	C210.190536,75.229408 210.574081,73.377205 210.957611,71.525002 
	C213.711716,71.737236 215.028564,73.216331 214.965607,76.391937 
	C215.045151,76.802078 215.098465,76.700638 215.098465,76.700638 
z"/>
<path fill="#2FAA80" opacity="1.000000" stroke="none" 
	d="
M230.118622,82.470779 
	C228.453522,83.047104 226.788422,83.623428 224.539536,83.949486 
	C222.398132,81.947037 220.840515,80.194855 219.071732,78.205132 
	C221.335037,76.573189 223.246048,75.195274 225.157043,73.817352 
	C225.884048,73.868591 226.611038,73.919838 227.684967,74.248825 
	C228.031906,74.526558 228.082199,74.909302 228.056396,75.175766 
	C228.029099,75.620155 228.027603,75.798096 228.167679,76.224838 
	C228.870911,76.973946 229.432556,77.474266 229.690887,78.025269 
	C229.057693,78.494423 228.727829,78.912895 228.397949,79.331360 
	C228.937256,79.550133 229.476562,79.768906 230.013809,79.999130 
	C230.011749,80.010574 230.034439,80.016380 230.033905,80.425011 
	C230.061783,81.379356 230.090210,81.925064 230.118622,82.470779 
z"/>
<path fill="#5B8B6E" opacity="1.000000" stroke="none" 
	d="
M245.888840,114.812004 
	C240.858200,111.026199 239.572052,99.081009 243.435806,91.616852 
	C244.017166,91.182564 244.337326,91.148514 244.836731,91.315926 
	C245.364273,91.717644 245.709396,91.888237 246.404114,92.054291 
	C247.448044,92.038757 248.142395,92.027763 248.836731,92.016769 
	C241.471344,98.308861 241.496063,98.434654 245.412506,109.182022 
	C246.028015,110.871040 245.910782,112.827072 245.888840,114.812004 
z"/>
<path fill="#507861" opacity="1.000000" stroke="none" 
	d="
M262.116913,82.317001 
	C260.703033,83.259377 259.289185,84.201759 257.309265,84.827652 
	C254.397476,85.294456 252.067459,86.129761 249.701645,86.846962 
	C247.153046,87.619560 244.570892,88.281509 242.003387,88.991730 
	C242.003387,88.991722 242.000000,89.000305 241.998505,88.704727 
	C241.997299,88.020508 241.997574,87.631859 242.399643,87.244919 
	C246.669434,85.430748 250.537415,83.614883 254.804688,81.821701 
	C255.807236,80.868774 256.410492,79.893166 257.170715,78.720856 
	C257.771973,78.304604 258.216217,78.085045 259.053131,77.932365 
	C260.336151,79.438492 261.226532,80.877747 262.116913,82.317001 
z"/>
<path fill="#64806D" opacity="1.000000" stroke="none" 
	d="
M243.371490,37.224747 
	C247.254913,35.805748 249.763870,33.434513 249.994598,28.733139 
	C251.928040,29.353724 252.074020,35.437305 255.926971,29.841192 
	C257.505432,29.685749 258.782867,29.783564 260.599640,30.099895 
	C261.736267,30.789049 262.333496,31.259687 262.930756,31.730328 
	C260.747253,32.226437 258.563782,32.722546 255.977203,33.729401 
	C255.365250,34.817371 255.156357,35.394596 254.702759,35.803131 
	C253.305679,35.757343 252.153290,35.880249 250.757599,36.106720 
	C250.338303,36.487110 250.162308,36.763935 249.983566,37.018623 
	C249.980804,36.996487 250.023773,36.987347 250.023773,36.987347 
	C247.863708,37.176559 245.703659,37.365776 243.371490,37.224747 
z"/>
<path fill="#38D092" opacity="1.000000" stroke="none" 
	d="
M222.760788,50.064774 
	C221.731415,48.331020 220.702042,46.597267 218.785522,43.369305 
	C223.212875,43.613422 226.237228,43.780178 229.624634,44.375305 
	C229.766083,46.667233 229.544449,48.530788 229.273697,50.807365 
	C227.250549,50.576687 225.005676,50.320732 222.760788,50.064774 
z"/>
<path fill="#3DCB93" opacity="1.000000" stroke="none" 
	d="
M210.667023,71.294006 
	C210.574081,73.377205 210.190536,75.229408 209.703857,77.579727 
	C205.913528,79.308250 203.514786,78.519730 201.012512,73.820885 
	C204.116989,72.679832 207.246704,71.871429 210.667023,71.294006 
z"/>
<path fill="#3DD190" opacity="1.000000" stroke="none" 
	d="
M206.159149,44.484894 
	C205.649658,42.765068 205.325439,41.368546 204.685104,38.610298 
	C208.356277,38.887135 211.423996,39.118462 214.491714,39.349792 
	C214.526230,39.815456 214.560745,40.281120 214.595261,40.746784 
	C213.711014,41.328648 212.826782,41.910507 211.742599,42.623940 
	C212.081329,43.386269 212.510269,44.351624 212.927032,45.641449 
	C210.724731,45.580006 208.534576,45.194099 206.159149,44.484894 
z"/>
<path fill="#42C58E" opacity="1.000000" stroke="none" 
	d="
M242.125641,89.288406 
	C244.570892,88.281509 247.153046,87.619560 249.701645,86.846962 
	C252.067459,86.129761 254.397476,85.294456 256.955994,84.822861 
	C254.632416,87.401291 252.096115,89.668015 249.198273,91.975754 
	C248.142395,92.027763 247.448044,92.038757 246.243927,91.801140 
	C245.374191,91.396622 245.014267,91.240715 244.654327,91.084808 
	C244.337326,91.148514 244.017166,91.182564 243.460144,91.232620 
	C242.900269,90.713882 242.574097,90.149483 242.125641,89.288406 
z"/>
<path fill="#518368" opacity="1.000000" stroke="none" 
	d="
M222.857697,50.431950 
	C225.005676,50.320732 227.250549,50.576687 229.273697,50.807365 
	C229.544449,48.530788 229.766083,46.667233 230.016968,44.484039 
	C231.475052,45.044769 234.226929,46.269947 234.102966,46.745617 
	C233.575012,48.771400 232.440216,51.921509 231.074783,52.169258 
	C228.534561,52.630161 225.678940,51.352852 222.857697,50.431950 
z"/>
<path fill="#598168" opacity="1.000000" stroke="none" 
	d="
M218.156647,129.038284 
	C219.435532,129.671906 220.691635,130.790421 221.997421,130.851807 
	C226.646301,131.070389 231.312103,130.929230 236.459137,131.274033 
	C236.976196,131.827896 237.005615,132.031967 237.035019,132.236038 
	C230.031250,132.561035 223.027481,132.886032 214.848923,133.265549 
	C216.042465,130.860016 216.696426,129.541992 217.700775,128.361908 
	C218.086319,128.679337 218.121475,128.858810 218.156647,129.038284 
z"/>
<path fill="#49B587" opacity="1.000000" stroke="none" 
	d="
M287.709839,74.444748 
	C290.028778,73.019753 292.446533,72.004021 295.201477,71.162033 
	C295.538666,71.335777 295.661041,71.312172 295.805298,71.613365 
	C296.730286,73.061005 297.511047,74.207458 298.291809,75.353912 
	C298.133270,75.932800 297.974731,76.511681 297.816193,77.090561 
	C294.514954,76.904488 291.213745,76.718422 287.912537,76.532349 
	C287.877930,75.972900 287.843323,75.413460 287.709839,74.444748 
z"/>
<path fill="#DDDED7" opacity="1.000000" stroke="none" 
	d="
M278.103058,45.301388 
	C283.554230,46.065918 285.594940,42.378357 287.667236,38.139084 
	C291.097015,35.975365 294.226227,33.985603 297.608582,32.246994 
	C297.769196,32.638157 297.676666,32.778164 297.332489,33.093422 
	C295.345367,35.179016 293.609924,37.089352 291.583618,39.079903 
	C290.576660,39.518864 289.860626,39.877609 289.144592,40.236359 
	C288.340210,41.311089 287.630127,42.475204 286.713013,43.443104 
	C284.341400,45.946060 282.022308,48.921463 278.103058,45.301388 
z"/>
<path fill="#4F7760" opacity="1.000000" stroke="none" 
	d="
M245.900482,25.667948 
	C244.583893,25.825998 243.142471,25.648594 240.725082,25.351067 
	C241.189667,28.594692 241.608887,31.521547 242.013275,34.886536 
	C241.552841,35.222481 241.107254,35.120281 240.203552,34.714767 
	C239.169479,33.946743 238.593521,33.482029 238.017548,33.017319 
	C237.378372,32.572929 236.739197,32.128529 236.050842,31.367443 
	C236.644318,30.361361 237.756729,29.733419 237.856216,28.972967 
	C238.749695,22.143131 239.696518,21.671480 245.900482,25.667948 
z"/>
<path fill="#4D7965" opacity="1.000000" stroke="none" 
	d="
M227.009171,70.022430 
	C228.374786,69.336174 229.740402,68.649910 232.048157,67.490196 
	C229.293030,66.265266 227.495819,65.466225 225.522034,64.588684 
	C227.840759,63.185707 229.891800,61.944702 232.002380,60.312969 
	C234.997223,61.891666 235.059937,68.239151 232.028442,70.178635 
	C230.841980,70.937691 229.298157,71.138184 227.491058,71.226212 
	C227.046417,70.580383 227.027802,70.301407 227.009171,70.022430 
z"/>
<path fill="#577E62" opacity="1.000000" stroke="none" 
	d="
M297.584167,32.918167 
	C297.676666,32.778164 297.769196,32.638157 297.986572,32.279625 
	C302.647064,30.746042 303.652008,32.936356 303.044128,36.918545 
	C302.477539,40.630451 301.556000,44.055088 297.080658,45.476280 
	C296.028076,44.514709 295.518921,43.723495 295.392761,42.953167 
	C297.502777,40.946148 299.531708,39.077396 300.743713,36.778042 
	C301.045471,36.205608 298.708374,34.242222 297.584167,32.918167 
z"/>
<path fill="#49685B" opacity="1.000000" stroke="none" 
	d="
M225.125519,73.613037 
	C223.246048,75.195274 221.335037,76.573189 219.071732,78.205132 
	C220.840515,80.194855 222.398132,81.947037 224.184143,83.979446 
	C218.875458,85.227013 217.644928,80.812500 215.399948,76.994812 
	C215.098465,76.700638 215.045151,76.802078 215.035309,76.829117 
	C217.727066,75.640556 220.428650,74.424965 223.741013,73.090218 
	C224.546310,72.989693 224.740814,73.008316 224.935303,73.026932 
	C224.935303,73.026932 225.093979,73.408722 225.125519,73.613037 
z"/>
<path fill="#587169" opacity="1.000000" stroke="none" 
	d="
M237.861511,33.340103 
	C238.593521,33.482029 239.169479,33.946743 239.864334,34.669151 
	C238.771698,36.757523 237.560165,38.588192 236.194885,40.715157 
	C231.659958,42.402302 228.955109,40.281151 226.958664,36.310135 
	C227.741348,36.083744 228.682877,35.991039 229.280945,36.400272 
	C233.535019,39.311100 235.336777,38.757347 237.861511,33.340103 
z"/>
<path fill="#538269" opacity="1.000000" stroke="none" 
	d="
M225.050049,72.778168 
	C224.740814,73.008316 224.546310,72.989693 224.060608,72.936958 
	C219.559586,70.504059 215.289093,68.201813 211.190155,65.626534 
	C210.351669,65.099731 210.156433,63.549088 209.902771,62.269363 
	C214.862076,65.969109 219.333389,70.375443 226.590546,70.007767 
	C227.027802,70.301407 227.046417,70.580383 227.090958,71.279205 
	C226.466187,71.975838 225.815491,72.252625 225.050049,72.778168 
z"/>
<path fill="#72917F" opacity="1.000000" stroke="none" 
	d="
M233.577728,87.064148 
	C234.068314,92.863312 234.233688,98.891533 234.104080,105.195679 
	C233.623566,99.412132 233.438049,93.352661 233.577728,87.064148 
z"/>
<path fill="#4D775E" opacity="1.000000" stroke="none" 
	d="
M267.476135,23.124451 
	C266.104919,21.907377 264.785706,20.775185 264.021942,19.346140 
	C262.789398,17.039940 261.262207,15.994517 258.344543,17.039711 
	C258.657959,15.771813 259.103516,13.585681 260.039764,13.350133 
	C261.185394,13.061913 263.205841,14.053282 264.024017,15.122128 
	C265.691193,17.300097 266.806091,19.900822 268.267822,22.686153 
	C268.183960,23.055315 267.980743,23.065695 267.476135,23.124451 
z"/>
<path fill="#517A64" opacity="1.000000" stroke="none" 
	d="
M278.106384,32.869713 
	C273.139313,34.727955 270.085358,32.443375 270.024597,26.415916 
	C270.948639,24.944841 271.868713,23.878881 272.982849,22.580927 
	C273.802673,22.353334 274.428467,22.357738 275.057007,22.886133 
	C273.947296,24.734184 272.834808,26.058245 271.729004,27.374378 
	C274.149506,29.460102 276.127930,31.164907 278.106384,32.869713 
z"/>
<path fill="#54705F" opacity="1.000000" stroke="none" 
	d="
M199.642914,53.979065 
	C199.435654,54.689781 198.968826,55.608730 198.222610,56.016731 
	C193.402557,58.652168 193.260361,59.275650 196.934631,63.717911 
	C195.028107,62.644333 191.316559,61.041344 191.443314,59.844986 
	C191.871536,55.802830 195.514618,54.476398 199.642914,53.979065 
z"/>
<path fill="#E5E4DC" opacity="1.000000" stroke="none" 
	d="
M288.011536,76.869156 
	C291.213745,76.718422 294.514954,76.904488 297.816193,77.090561 
	C297.974731,76.511681 298.133270,75.932800 298.291809,75.353912 
	C297.511047,74.207458 296.730286,73.061005 295.857025,71.578613 
	C297.504333,72.217354 299.244141,73.192032 300.979858,74.164398 
	C297.661774,79.693970 292.739929,80.666969 288.011536,76.869156 
z"/>
<path fill="#527E64" opacity="1.000000" stroke="none" 
	d="
M218.505859,129.010468 
	C218.121475,128.858810 218.086319,128.679337 218.010864,128.228546 
	C220.486206,123.522789 224.499893,122.305405 229.619202,122.631973 
	C226.268295,124.704567 222.561691,126.843597 218.505859,129.010468 
z"/>
<path fill="#5F7C6A" opacity="1.000000" stroke="none" 
	d="
M295.009766,42.932281 
	C295.518921,43.723495 296.028076,44.514709 296.742371,45.527836 
	C293.126434,46.153374 290.262482,45.014980 289.179810,40.593235 
	C289.860626,39.877609 290.576660,39.518864 291.642700,39.412537 
	C292.998383,40.754066 294.004059,41.843174 295.009766,42.932281 
z"/>
<path fill="#164226" opacity="1.000000" stroke="none" 
	d="
M237.500549,132.269775 
	C237.005615,132.031967 236.976196,131.827896 236.919159,131.315720 
	C238.953400,130.977936 241.015259,130.948227 243.513367,130.882751 
	C250.100204,131.005264 256.250763,131.163528 262.678802,131.631271 
	C254.626221,132.061661 246.296143,132.182587 237.500549,132.269775 
z"/>
<path fill="#445C52" opacity="1.000000" stroke="none" 
	d="
M204.432632,64.088615 
	C204.035049,60.815208 206.243027,57.122135 202.059906,54.302994 
	C203.668121,55.050301 206.597702,55.810162 206.947342,57.213028 
	C207.486801,59.377499 208.878555,62.875561 204.432632,64.088615 
z"/>
<path fill="#4B755A" opacity="1.000000" stroke="none" 
	d="
M284.757111,70.346054 
	C285.126556,70.053413 285.342682,70.048622 285.882874,70.056816 
	C286.210358,70.503929 286.213806,70.938072 286.211548,71.697983 
	C283.832764,74.418755 281.459625,76.813751 278.799561,79.102043 
	C280.543030,76.208199 282.573425,73.421059 284.757111,70.346054 
z"/>
<path fill="#517E65" opacity="1.000000" stroke="none" 
	d="
M267.022491,78.985741 
	C267.404968,78.359573 267.787445,77.733406 268.456604,77.053406 
	C270.555695,77.673660 272.368073,78.347740 274.592255,79.338440 
	C275.007080,80.064606 275.010132,80.474152 275.013214,80.883698 
	C273.595825,81.036148 272.178467,81.188591 270.214355,81.112457 
	C268.785889,80.251152 267.904205,79.618446 267.022491,78.985741 
z"/>
<path fill="#4A6056" opacity="1.000000" stroke="none" 
	d="
M234.180176,82.121422 
	C233.886322,82.532928 233.592468,82.944435 233.203064,83.588844 
	C232.307709,83.762741 231.507904,83.703743 231.058044,83.155205 
	C230.950134,81.782578 230.492279,80.899483 230.034424,80.016388 
	C230.034439,80.016380 230.011749,80.010574 230.166412,79.756020 
	C230.853241,78.975464 231.385406,78.449471 231.916061,77.618324 
	C231.867737,76.909164 231.820938,76.505157 231.836884,75.839989 
	C231.917038,75.400620 231.934433,75.222412 231.987473,75.008865 
	C232.023102,74.973534 232.091736,74.900322 232.091736,74.900322 
	C232.674896,75.403717 233.258057,75.907112 233.905212,77.085648 
	C234.039520,79.214325 234.109848,80.667877 234.180176,82.121422 
z"/>
<path fill="#587466" opacity="1.000000" stroke="none" 
	d="
M262.384521,82.120499 
	C261.226532,80.877747 260.336151,79.438492 259.302917,77.662720 
	C260.779449,76.921951 262.398865,76.517708 264.018280,76.113464 
	C264.328796,76.897537 264.639282,77.681602 264.954803,78.784813 
	C264.190582,80.043968 263.421356,80.983978 262.384521,82.120499 
z"/>
<path fill="#BFBFBC" opacity="1.000000" stroke="none" 
	d="
M234.326233,82.062820 
	C234.109848,80.667877 234.039520,79.214325 234.069092,77.333588 
	C235.209900,76.302055 236.250809,75.697716 237.595520,75.004700 
	C237.479218,76.150917 237.059097,77.385803 236.087509,78.997269 
	C235.284760,80.232193 235.033463,81.090523 234.782166,81.948853 
	C234.782181,81.948853 234.472305,82.004211 234.326233,82.062820 
z"/>
<path fill="#4D7965" opacity="1.000000" stroke="none" 
	d="
M232.241409,59.554256 
	C230.410782,59.175758 228.740997,58.409573 227.053375,57.281700 
	C228.824448,57.668869 230.613342,58.417717 232.241409,59.554256 
z"/>
<path fill="#4B8266" opacity="1.000000" stroke="none" 
	d="
M226.917725,56.562698 
	C224.881256,56.980862 222.701920,57.009193 220.044617,57.009922 
	C221.969376,56.712502 224.372116,56.442688 226.917725,56.562698 
z"/>
<path fill="#5D7D6B" opacity="1.000000" stroke="none" 
	d="
M254.728729,25.182045 
	C255.402695,25.954052 255.827332,26.896582 256.049347,28.011066 
	C255.390930,27.239532 254.935150,26.296049 254.728729,25.182045 
z"/>
<path fill="#587466" opacity="1.000000" stroke="none" 
	d="
M267.006409,79.263657 
	C267.904205,79.618446 268.785889,80.251152 269.967255,81.018906 
	C269.215637,81.028946 268.164368,80.903954 267.036743,80.438240 
	C266.970428,79.912201 266.980408,79.726883 267.006409,79.263657 
z"/>
<path fill="#4B755A" opacity="1.000000" stroke="none" 
	d="
M275.366272,80.933029 
	C275.010132,80.474152 275.007080,80.064606 275.008057,79.348465 
	C275.890991,78.982605 276.769897,78.923332 278.087830,78.923203 
	C277.590973,79.649017 276.655151,80.315689 275.366272,80.933029 
z"/>
<path fill="#528571" opacity="1.000000" stroke="none" 
	d="
M230.033890,80.425018 
	C230.492279,80.899483 230.950134,81.782578 231.122635,82.831451 
	C230.703522,82.833031 230.568558,82.669830 230.275513,82.489197 
	C230.090210,81.925064 230.061783,81.379356 230.033890,80.425018 
z"/>
<path fill="#598168" opacity="1.000000" stroke="none" 
	d="
M264.445801,132.099609 
	C265.157990,131.987564 266.100647,131.996628 267.393799,131.982666 
	C266.721588,132.046692 265.698944,132.133713 264.445801,132.099609 
z"/>
<path fill="#445C52" opacity="1.000000" stroke="none" 
	d="
M201.258240,65.084412 
	C201.721436,64.662086 202.543915,64.319443 203.723236,64.009384 
	C203.259232,64.416016 202.438370,64.790054 201.258240,65.084412 
z"/>
<path fill="#2F5847" opacity="1.000000" stroke="none" 
	d="
M228.082199,74.909302 
	C228.082199,74.909302 228.031906,74.526558 228.039505,74.334351 
	C228.785858,74.069069 229.524628,73.995995 230.616043,74.248978 
	C230.968704,74.575035 230.960510,75.003197 230.600525,75.007370 
	C229.521088,74.977470 228.801651,74.943390 228.082199,74.909302 
z"/>
<path fill="#567667" opacity="1.000000" stroke="none" 
	d="
M298.848145,61.541943 
	C298.776947,62.093437 298.567902,62.567371 298.358887,63.041309 
	C298.299042,62.737156 298.239197,62.432995 298.290314,61.830360 
	C298.401276,61.531883 298.710327,61.464382 298.848145,61.541943 
z"/>
<path fill="#72917F" opacity="1.000000" stroke="none" 
	d="
M233.997345,105.929031 
	C234.220139,105.917496 234.527725,106.217255 234.911713,106.830124 
	C234.686127,106.842270 234.384140,106.541306 233.997345,105.929031 
z"/>
<path fill="#54705F" opacity="1.000000" stroke="none" 
	d="
M197.020020,64.143669 
	C196.923004,64.034401 197.377808,64.040749 197.602280,64.010735 
	C197.826752,63.980717 197.531708,64.270164 197.531708,64.270164 
	C197.531708,64.270164 197.117050,64.252937 197.020020,64.143669 
z"/>
<path fill="#4A6056" opacity="1.000000" stroke="none" 
	d="
M230.960510,75.003197 
	C230.960510,75.003197 230.968704,74.575035 230.971344,74.361137 
	C231.279968,74.245499 231.585983,74.343758 231.991852,74.671165 
	C232.091736,74.900322 232.023102,74.973534 231.739624,75.000565 
	C231.456161,75.027596 230.960510,75.003197 230.960510,75.003197 
z"/>
<path fill="#36344F" opacity="1.000000" stroke="none" 
	d="
M128.841614,80.837982 
	C129.266052,80.309959 129.930466,80.036156 130.594864,79.762360 
	C130.457565,80.236961 130.320267,80.711563 129.875763,81.390015 
	C129.406250,81.426643 129.243927,81.259422 128.841614,80.837982 
z"/>
<path fill="#E3E3DD" opacity="1.000000" stroke="none" 
	d="
M263.918427,75.747360 
	C262.398865,76.517708 260.779449,76.921951 258.910278,77.595840 
	C258.216217,78.085045 257.771973,78.304604 256.848633,78.843506 
	C255.714874,80.041580 255.060150,80.920296 254.405411,81.799011 
	C250.537415,83.614883 246.669434,85.430748 242.370193,86.817291 
	C241.913940,85.252319 241.888916,84.116684 241.863892,82.981041 
	C242.187592,81.551964 242.511292,80.122887 242.993179,78.359024 
	C244.350723,76.819450 245.782928,75.765526 246.687317,74.369629 
	C247.695633,72.813316 248.224091,70.946144 249.367859,69.493095 
	C252.754761,75.153839 254.109039,75.515648 258.768280,72.060410 
	C261.089172,70.083321 264.757477,68.847702 261.923187,64.587967 
	C259.800873,63.885323 257.882141,63.512325 255.963379,63.139324 
	C261.096344,59.944847 264.861450,63.109650 269.064392,66.037003 
	C266.819733,68.809769 261.359436,69.682632 263.918427,75.747360 
z"/>
<path fill="#42C58E" opacity="1.000000" stroke="none" 
	d="
M241.517975,83.056625 
	C241.888916,84.116684 241.913940,85.252319 241.968399,86.815582 
	C241.997574,87.631859 241.997299,88.020508 242.002228,88.701019 
	C241.121719,89.058952 240.235977,89.125023 239.350250,89.191093 
	C239.957520,87.171463 240.564789,85.151833 241.517975,83.056625 
z"/>
<path fill="#63AB8A" opacity="1.000000" stroke="none" 
	d="
M245.910263,64.531418 
	C246.893173,64.177757 247.900772,64.169014 248.908386,64.160271 
	C248.289993,65.221977 247.671585,66.283676 246.959686,67.690613 
	C246.555771,66.982681 246.245377,65.929504 245.910263,64.531418 
z"/>
<path fill="#7D8983" opacity="1.000000" stroke="none" 
	d="
M235.112991,81.831909 
	C235.033463,81.090523 235.284760,80.232193 235.842865,79.221786 
	C235.914398,79.951454 235.679108,80.833206 235.112991,81.831909 
z"/>
<path fill="#3CCB8B" opacity="1.000000" stroke="none" 
	d="
M272.263458,51.939728 
	C275.417847,51.925755 278.579407,52.040096 281.724670,51.863380 
	C285.190155,51.668671 286.209381,53.073315 285.113159,56.634579 
	C282.378235,60.818813 279.569885,64.560997 273.801270,62.616829 
	C272.948242,60.833347 271.999115,58.848949 271.055603,56.132965 
	C271.461945,54.247498 271.862701,53.093613 272.263458,51.939728 
z"/>
<path fill="#547565" opacity="1.000000" stroke="none" 
	d="
M251.000916,36.003155 
	C252.153290,35.880249 253.305679,35.757343 254.726715,36.036282 
	C254.995361,36.438122 255.024490,36.905262 254.668350,36.986649 
	C251.328552,40.066566 251.477737,42.915504 254.044174,45.278252 
	C256.105286,44.775883 257.564728,44.420162 259.072083,44.394897 
	C260.077576,44.495163 261.035095,44.264969 261.992645,44.034775 
	C262.436737,44.011257 262.880798,43.987740 263.500488,44.367340 
	C263.477234,45.898319 263.278412,47.026176 263.104431,48.430122 
	C263.118805,49.073757 263.108276,49.441303 263.067322,50.248791 
	C262.984528,51.570641 262.932159,52.452557 262.879791,53.334469 
	C261.998383,51.519810 261.116974,49.705147 260.208588,47.834961 
	C257.342865,47.834961 254.142456,47.834961 250.499176,47.843597 
	C250.056290,47.852230 250.034592,47.530239 250.014008,47.370590 
	C250.085342,44.101368 250.177261,40.991798 250.146484,37.434788 
	C250.023773,36.987347 249.980804,36.996487 250.290237,37.074532 
	C250.733429,36.769432 250.867172,36.386292 251.000916,36.003155 
z"/>
<path fill="#4F7D68" opacity="1.000000" stroke="none" 
	d="
M258.452393,72.090385 
	C254.109039,75.515648 252.754761,75.153839 249.692429,69.395851 
	C249.933197,68.212166 250.255829,67.404541 250.671539,66.284119 
	C252.267334,65.037102 253.770020,64.102890 255.618042,63.154007 
	C257.882141,63.512325 259.800873,63.885323 261.491150,64.615173 
	C258.344696,65.526375 255.426682,66.080719 252.508667,66.635063 
	C252.499405,67.263054 252.490128,67.891052 252.480865,68.519043 
	C254.471375,69.709496 256.461884,70.899940 258.452393,72.090385 
z"/>
<path fill="#47725C" opacity="1.000000" stroke="none" 
	d="
M263.118042,53.597130 
	C262.932159,52.452557 262.984528,51.570641 263.290100,50.430344 
	C265.683472,50.761353 267.823578,51.350750 270.002716,52.307320 
	C270.073975,52.918541 270.106171,53.162586 270.004364,53.608948 
	C269.537079,54.150200 269.203735,54.489136 268.870422,54.828072 
	C267.032379,54.505314 265.194305,54.182552 263.118042,53.597130 
z"/>
<path fill="#D8DBD2" opacity="1.000000" stroke="none" 
	d="
M249.991394,52.980629 
	C250.089371,52.101009 250.187332,51.221386 250.559662,50.152592 
	C253.616150,50.617599 253.638794,51.996281 251.386475,53.683769 
	C250.609543,53.338951 250.300476,53.159790 249.991394,52.980629 
z"/>
<path fill="#A7AEA0" opacity="1.000000" stroke="none" 
	d="
M269.149231,54.949635 
	C269.203735,54.489136 269.537079,54.150200 270.239502,53.412628 
	C271.094604,52.668175 271.580566,52.322365 272.066559,51.976555 
	C272.066559,51.976555 272.153961,51.913071 272.208710,51.926399 
	C271.862701,53.093613 271.461945,54.247498 270.987915,55.763966 
	C270.419098,55.774765 269.923584,55.422977 269.149231,54.949635 
z"/>
<path fill="#2E4A36" opacity="1.000000" stroke="none" 
	d="
M249.827438,53.224190 
	C250.300476,53.159790 250.609543,53.338951 251.049286,53.764618 
	C250.981232,54.370113 250.782486,54.729095 250.299042,55.214508 
	C249.661606,55.057320 249.308868,54.773705 248.769516,54.199944 
	C248.943100,53.762451 249.303284,53.615097 249.827438,53.224190 
z"/>
<path fill="#3FC78F" opacity="1.000000" stroke="none" 
	d="
M278.425964,32.751770 
	C276.127930,31.164907 274.149506,29.460102 271.729004,27.374378 
	C272.834808,26.058245 273.947296,24.734184 275.289917,23.108723 
	C277.511200,22.537138 279.502319,22.266954 281.493439,21.996773 
	C281.290344,24.469704 281.279785,26.980740 280.801056,29.399113 
	C280.569855,30.567207 279.458405,31.561071 278.425964,32.751770 
z"/>
<path fill="#31D694" opacity="1.000000" stroke="none" 
	d="
M269.963684,51.940151 
	C267.823578,51.350750 265.683472,50.761353 263.320557,49.990402 
	C263.108276,49.441303 263.118805,49.073757 263.341309,48.205452 
	C264.001923,46.502888 264.450500,45.301086 264.899048,44.099285 
	C266.820282,43.464096 268.741547,42.828911 270.842712,42.933235 
	C270.669647,46.428547 270.316681,49.184349 269.963684,51.940151 
z"/>
<path fill="#5D7D6B" opacity="1.000000" stroke="none" 
	d="
M263.292023,31.878578 
	C262.333496,31.259687 261.736267,30.789049 260.985168,30.067060 
	C261.007874,28.746576 261.184387,27.677441 261.310242,26.915257 
	C263.101501,27.342964 264.694550,27.723337 266.606049,28.083103 
	C265.834106,29.383942 264.743713,30.705385 263.292023,31.878578 
z"/>
<path fill="#3F6655" opacity="1.000000" stroke="none" 
	d="
M261.693695,43.797104 
	C261.035095,44.264969 260.077576,44.495163 259.077087,44.001480 
	C258.664001,41.543900 258.293884,39.810200 258.117737,37.886147 
	C258.426727,37.555805 258.541748,37.415813 258.656799,37.275822 
	C259.569458,39.370361 260.482086,41.464901 261.693695,43.797104 
z"/>
<path fill="#387757" opacity="1.000000" stroke="none" 
	d="
M270.002716,52.307320 
	C270.316681,49.184349 270.669647,46.428547 271.053955,43.226646 
	C271.410217,45.552170 271.735168,48.323795 272.063324,51.535988 
	C271.580566,52.322365 271.094604,52.668175 270.373474,53.210308 
	C270.106171,53.162586 270.073975,52.918541 270.002716,52.307320 
z"/>
<path fill="#3F6655" opacity="1.000000" stroke="none" 
	d="
M255.024490,36.905266 
	C255.024490,36.905262 254.995361,36.438122 254.971420,36.204971 
	C255.156357,35.394596 255.365250,34.817371 255.844482,34.080017 
	C256.869354,34.859726 257.623932,35.799553 258.517639,37.007603 
	C258.541748,37.415813 258.426727,37.555805 257.806641,37.840427 
	C256.542511,37.625126 255.783493,37.265194 255.024490,36.905266 
z"/>
<path fill="#47725C" opacity="1.000000" stroke="none" 
	d="
M264.664856,44.058922 
	C264.450500,45.301086 264.001923,46.502888 263.316467,47.929363 
	C263.278412,47.026176 263.477234,45.898319 263.823975,44.456741 
	C263.971893,44.143024 264.430634,44.018562 264.664856,44.058922 
z"/>
<path fill="#29553A" opacity="1.000000" stroke="none" 
	d="
M246.685013,55.911427 
	C246.127731,56.126381 245.210358,56.420509 244.201813,56.383240 
	C244.848724,56.031425 245.586823,56.011013 246.685013,55.911427 
z"/>
<path fill="#3CA382" opacity="1.000000" stroke="none" 
	d="
M298.793884,50.030682 
	C299.390839,51.466187 300.249878,53.337475 299.652649,54.197479 
	C298.768494,55.470669 296.817017,56.716022 295.385040,56.645847 
	C294.422729,56.598686 293.021027,54.311314 292.884155,52.921047 
	C292.804749,52.114395 294.754456,50.958916 295.956757,50.235958 
	C296.588684,49.855980 297.577148,50.068916 298.793884,50.030682 
z"/>
<path fill="#489B7C" opacity="1.000000" stroke="none" 
	d="
M231.774139,76.101143 
	C231.820938,76.505157 231.867737,76.909164 231.596939,77.643890 
	C230.850952,77.974586 230.422592,77.974586 229.994217,77.974579 
	C229.432556,77.474266 228.870911,76.973946 228.545624,76.230583 
	C229.779373,76.025414 230.776749,76.063278 231.774139,76.101143 
z"/>
<path fill="#317E61" opacity="1.000000" stroke="none" 
	d="
M229.690887,78.025269 
	C230.422592,77.974586 230.850952,77.974586 231.598450,77.949036 
	C231.385406,78.449471 230.853241,78.975464 230.168472,79.744568 
	C229.476562,79.768906 228.937256,79.550133 228.397949,79.331360 
	C228.727829,78.912895 229.057693,78.494423 229.690887,78.025269 
z"/>
<path fill="#46866C" opacity="1.000000" stroke="none" 
	d="
M231.836884,75.839989 
	C230.776749,76.063278 229.779373,76.025414 228.404053,75.981796 
	C228.027603,75.798096 228.029099,75.620155 228.056396,75.175766 
	C228.801651,74.943390 229.521088,74.977470 230.600525,75.007370 
	C230.960510,75.003197 231.456161,75.027596 231.704010,75.035896 
	C231.934433,75.222412 231.917038,75.400620 231.836884,75.839989 
z"/>
<path fill="#35D48C" opacity="1.000000" stroke="none" 
	d="
M244.836731,91.315926 
	C245.014267,91.240715 245.374191,91.396622 245.894333,91.805679 
	C245.709396,91.888237 245.364273,91.717644 244.836731,91.315926 
z"/>
<path fill="#587466" opacity="1.000000" stroke="none" 
	d="
M254.804688,81.821701 
	C255.060150,80.920296 255.714874,80.041580 256.691650,79.040207 
	C256.410492,79.893166 255.807236,80.868774 254.804688,81.821701 
z"/>
<path fill="#D8DBD2" opacity="1.000000" stroke="none" 
	d="
M250.757599,36.106720 
	C250.867172,36.386292 250.733429,36.769432 250.292999,37.096664 
	C250.162308,36.763935 250.338303,36.487110 250.757599,36.106720 
z"/>
<path fill="#3DCB8A" opacity="1.000000" stroke="none" 
	d="
M295.392761,42.953171 
	C294.004059,41.843174 292.998383,40.754066 291.933594,39.332321 
	C293.609924,37.089352 295.345367,35.179016 297.332489,33.093422 
	C298.708374,34.242222 301.045471,36.205608 300.743713,36.778042 
	C299.531708,39.077396 297.502777,40.946148 295.392761,42.953171 
z"/>
<path fill="#37A67E" opacity="1.000000" stroke="none" 
	d="
M258.768280,72.060410 
	C256.461884,70.899940 254.471375,69.709496 252.480865,68.519043 
	C252.490128,67.891052 252.499405,67.263054 252.508667,66.635063 
	C255.426682,66.080719 258.344696,65.526375 261.694702,64.944824 
	C264.757477,68.847702 261.089172,70.083321 258.768280,72.060410 
z"/>
<path fill="#37A47B" opacity="1.000000" stroke="none" 
	d="
M254.668350,36.986649 
	C255.783493,37.265194 256.542511,37.625126 257.612640,38.030777 
	C258.293884,39.810200 258.664001,41.543900 259.029175,43.671021 
	C257.564728,44.420162 256.105286,44.775883 254.044174,45.278252 
	C251.477737,42.915504 251.328552,40.066566 254.668350,36.986649 
z"/>
</svg>